#!OML:ASF I:\Actors\actors\Patient Classification 2\Patient 1\Session 1\actor1.ASF
:FULLY-SPECIFIED
:DEGREES
766
root -1.55926 18.7533 5.87239 2.75329 20.2025 -0.852179
lowerback 31.9082 2.01209 0.944953
upperback 3.67602 2.72698 -1.8809
thorax -12.3359 1.19921 -3.59978
lowerneck -14.6909 -12.5585 -17.5215
upperneck 26.6032 -14.2106 4.47526
head 13.0163 -7.47513 2.1733
rclavicle -8.7664e-014 2.32578e-014
rhumerus -45.978 6.52432 -100.814
rradius 47.096
rwrist 20.2043
rhand -4.80836 -45.0947
rfingers 7.12502
rthumb 20.9775 -73.9802
lclavicle -8.7664e-014 2.32578e-014
lhumerus -44.2125 -23.2328 103.206
lradius 70.5167
lwrist -13.8369
lhand 11.3252 2.14187
lfingers 7.12502
lthumb 36.3821 28.3636
rfemur 0 0 0
rtibia 0
rfoot 0 0
rtoes 0
lfemur -14.5706 -11.5693 -9.80411
ltibia 24.9843
lfoot -12.5334 2.72513
ltoes -55.9466
767
root -1.55061 18.7555 5.86516 2.98103 20.4327 -0.434246
lowerback 32.0523 2.134 0.265533
upperback 3.62415 2.64892 -1.87542
thorax -12.4858 1.19096 -3.20443
lowerneck -14.6157 -12.7011 -17.5237
upperneck 26.2334 -14.6211 5.11283
head 12.9545 -7.57951 2.34177
rclavicle -1.74931e-014 -8.94531e-015
rhumerus -46.1365 6.15882 -100.573
rradius 47.2765
rwrist 20.2404
rhand -4.79064 -44.9953
rfingers 7.12502
rthumb 20.9946 -73.8789
lclavicle -1.74931e-014 -8.94531e-015
lhumerus -44.3632 -23.1629 103.469
lradius 70.5636
lwrist -13.9585
lhand 11.1088 2.05246
lfingers 7.12502
lthumb 36.1773 28.3252
rfemur 0 0 0
rtibia 0
rfoot 0 0
rtoes 0
lfemur -14.7271 -11.7334 -10.2484
ltibia 24.9603
lfoot -12.4533 2.6952
ltoes -55.8722
768
root -1.53948 18.7582 5.85867 3.07417 20.5186 -0.494059
lowerback 32.1597 2.25558 -0.0889886
upperback 3.56876 2.70298 -1.70358
thorax -12.611 1.23099 -2.85554
lowerneck -14.4974 -12.8671 -17.6952
upperneck 25.7685 -15.0477 5.84692
head 12.8782 -7.69738 2.56833
rclavicle -1.71949e-014 2.54444e-014
rhumerus -46.2172 5.93033 -100.244
rradius 47.2945
rwrist 20.3415
rhand -4.78322 -44.7686
rfingers 7.12502
rthumb 21.0017 -73.6515
lclavicle -1.71949e-014 2.54444e-014
lhumerus -44.4467 -22.9865 103.811
lradius 70.5461
lwrist -14.0916
lhand 10.8235 1.98487
lfingers 7.12502
lthumb 35.907 28.3242
rfemur 0 0 0
rtibia 0
rfoot 0 0
rtoes 0
lfemur -14.8567 -11.8535 -10.1919
ltibia 24.9162
lfoot -12.4838 2.73243
ltoes -55.8671
769
root -1.52201 18.7584 5.85776 3.05831 20.4671 -0.555735
lowerback 32.3187 2.41762 -0.432635
upperback 3.54262 2.80599 -1.5692
thorax -12.7218 1.29292 -2.57319
lowerneck -14.3881 -13.0526 -17.8572
upperneck 25.3096 -15.5138 6.629
head 12.8213 -7.8282 2.80071
rclavicle -2.28602e-015 1.61016e-014
rhumerus -46.2935 5.60076 -99.93
rradius 47.2721
rwrist 20.5544
rhand -4.58761 -44.9229
rfingers 7.12502
rthumb 21.1896 -73.7848
lclavicle -2.28602e-015 1.61016e-014
lhumerus -44.4975 -22.8408 104.099
lradius 70.4625
lwrist -14.1648
lhand 10.5518 1.81755
lfingers 7.12502
lthumb 35.6495 28.2194
rfemur 0 0 0
rtibia 0
rfoot 0 0
rtoes 0
lfemur -14.8317 -11.9622 -10.1937
ltibia 24.943
lfoot -12.6484 2.85186
ltoes -55.9525
770
root -1.50001 18.7582 5.85885 3.08119 20.4097 -0.621853
lowerback 32.4245 2.53916 -0.69388
upperback 3.49142 2.87517 -1.50682
thorax -12.835 1.33463 -2.39886
lowerneck -14.3329 -13.2223 -17.8359
upperneck 24.9326 -15.9566 7.2791
head 12.7798 -7.94864 2.95675
rclavicle -5.47652e-014 5.20816e-014
rhumerus -46.434 5.16099 -99.7101
rradius 47.2851
rwrist 20.649
rhand -4.32968 -45.2299
rfingers 7.12502
rthumb 21.4373 -74.0639
lclavicle -5.47652e-014 5.20816e-014
lhumerus -44.5941 -22.743 104.296
lradius 70.3895
lwrist -14.2117
lhand 10.3283 1.71259
lfingers 7.12502
lthumb 35.4376 28.1653
rfemur 0 0 0
rtibia 0
rfoot 0 0
rtoes 0
lfemur -14.8655 -12.1052 -10.1962
ltibia 25.0129
lfoot -12.8007 3.02468
ltoes -55.9937
771
root -1.48146 18.7594 5.85523 3.19924 20.3843 -0.755673
lowerback 32.4638 2.64214 -0.909375
upperback 3.39306 2.93886 -1.42587
thorax -12.9743 1.37151 -2.22657
lowerneck -14.2743 -13.3885 -17.7617
upperneck 24.5841 -16.3823 7.84881
head 12.7376 -8.06785 3.0769
rclavicle 4.6118e-014 -7.55382e-015
rhumerus -46.6354 4.70236 -99.4771
rradius 47.3813
rwrist 20.563
rhand -4.3025 -45.235
rfingers 7.12502
rthumb 21.4635 -74.066
lclavicle 4.6118e-014 -7.55382e-015
lhumerus -44.6746 -22.5793 104.51
lradius 70.2645
lwrist -14.3236
lhand 10.0872 1.66561
lfingers 7.12502
lthumb 35.209 28.1726
rfemur 0 0 0
rtibia 0
rfoot 0 0
rtoes 0
lfemur -15.0653 -12.248 -10.0795
ltibia 25.0694
lfoot -12.89 3.15543
ltoes -55.9525
772
root -1.46941 18.7573 5.85243 3.07064 20.6026 -0.824166
lowerback 32.8228 2.69674 -1.21505
upperback 3.36201 2.91286 -1.28587
thorax -13.1781 1.37419 -1.91615
lowerneck -14.2085 -13.5758 -17.811
upperneck 24.1889 -16.8379 8.54394
head 12.7103 -8.19869 3.25391
rclavicle 1.19271e-014 3.18055e-015
rhumerus -46.8186 4.32798 -99.1817
rradius 47.546
rwrist 20.586
rhand -4.33452 -45.197
rfingers 7.12502
rthumb 21.4327 -74.0314
lclavicle 1.19271e-014 3.18055e-015
lhumerus -44.6581 -22.3431 104.728
lradius 70.0671
lwrist -14.4566
lhand 9.81542 1.45289
lfingers 7.12502
lthumb 34.9513 28.0203
rfemur 0 0 0
rtibia 0
rfoot 0 0
rtoes 0
lfemur -15.0012 -12.5339 -10.0424
ltibia 25.1071
lfoot -12.9741 3.14151
ltoes -55.8942
773
root -1.45332 18.7599 5.83439 3.20208 20.2058 -0.824378
lowerback 33.0099 2.9966 -1.66212
upperback 3.26566 3.13389 -1.23503
thorax -13.3834 1.49173 -1.72215
lowerneck -14.0899 -13.7908 -18.0073
upperneck 23.7218 -17.3356 9.37713
head 12.6875 -8.34945 3.49512
rclavicle 2.75317e-014 -3.24019e-014
rhumerus -46.9591 3.93386 -98.8764
rradius 47.6628
rwrist 20.7611
rhand -4.34663 -45.1496
rfingers 7.12502
rthumb 21.4211 -73.9854
lclavicle 2.75317e-014 -3.24019e-014
lhumerus -44.657 -22.207 104.965
lradius 69.8891
lwrist -14.5441
lhand 9.52533 1.30725
lfingers 7.12502
lthumb 34.676 27.9384
rfemur 0 0 0
rtibia 0
rfoot 0 0
rtoes 0
lfemur -15.0985 -12.5429 -10.0955
ltibia 25.1568
lfoot -13.1299 3.49452
ltoes -55.8697
774
root -1.44088 18.7613 5.81669 3.23224 20.0349 -0.804712
lowerback 33.3695 3.22015 -2.09161
upperback 3.16771 3.25855 -1.17251
thorax -13.6647 1.56578 -1.49463
lowerneck -13.9524 -13.9622 -18.087
upperneck 23.212 -17.7676 10.1186
head 12.6174 -8.47529 3.69875
rclavicle -5.23798e-014 -1.09332e-014
rhumerus -47.1137 3.54445 -98.591
rradius 47.7979
rwrist 20.7626
rhand -4.33171 -45.1055
rfingers 7.12502
rthumb 21.4354 -73.9397
lclavicle -5.23798e-014 -1.09332e-014
lhumerus -44.7033 -22.1252 105.221
lradius 69.7402
lwrist -14.616
lhand 9.21433 1.34793
lfingers 7.12502
lthumb 34.3808 28.0464
rfemur 0 0 0
rtibia 0
rfoot 0 0
rtoes 0
lfemur -15.1654 -12.6195 -10.1754
ltibia 25.2534
lfoot -13.2618 3.68302
ltoes -55.9256
775
root -1.4135 18.759 5.82833 3.00711 20.3165 -0.995053
lowerback 33.6057 3.20403 -2.1507
upperback 3.20118 3.23049 -1.03886
thorax -13.7328 1.55858 -1.31556
lowerneck -13.8334 -14.1083 -17.9857
upperneck 22.699 -18.1674 10.7522
head 12.5174 -8.58606 3.84057
rclavicle 3.97569e-016 -5.06901e-014
rhumerus -47.3097 3.16579 -98.3085
rradius 48.0192
rwrist 20.5923
rhand -4.37692 -45.1502
rfingers 7.12502
rthumb 21.392 -73.9893
lclavicle 3.97569e-016 -5.06901e-014
lhumerus -44.737 -22.0252 105.458
lradius 69.5824
lwrist -14.7772
lhand 8.92805 1.26349
lfingers 7.12502
lthumb 34.1089 28.023
rfemur 0 0 0
rtibia 0
rfoot 0 0
rtoes 0
lfemur -15.0673 -12.9988 -10.0843
ltibia 25.4124
lfoot -13.4686 3.75932
ltoes -55.9837
776
root -1.40355 18.7593 5.81914 3.13315 20.7042 -1.48648
lowerback 33.6333 3.10821 -1.99295
upperback 3.0808 3.19342 -0.838544
thorax -13.8887 1.53627 -1.17354
lowerneck -13.7054 -14.2811 -17.9574
upperneck 22.1486 -18.6257 11.543
head 12.4429 -8.71575 4.0367
rclavicle 9.3727e-014 -2.24627e-014
rhumerus -47.498 2.69531 -98.0145
rradius 48.198
rwrist 20.5807
rhand -4.44619 -44.997
rfingers 7.12502
rthumb 21.3254 -73.8436
lclavicle 9.3727e-014 -2.24627e-014
lhumerus -44.7561 -21.8859 105.679
lradius 69.4294
lwrist -15.0174
lhand 8.63602 1.05386
lfingers 7.12502
lthumb 33.8315 27.8749
rfemur 0 0 0
rtibia 0
rfoot 0 0
rtoes 0
lfemur -15.6605 -13.0188 -9.51045
ltibia 25.6154
lfoot -13.406 3.55625
ltoes -56.0861
777
root -1.38296 18.7588 5.81293 3.09029 20.9781 -1.83772
lowerback 33.827 3.04611 -1.92257
upperback 3.02771 3.15716 -0.686308
thorax -14.0354 1.51804 -1.04074
lowerneck -13.5724 -14.4445 -17.9647
upperneck 21.5175 -19.0871 12.4734
head 12.3649 -8.84036 4.28645
rclavicle 5.45664e-014 -1.35174e-014
rhumerus -47.5892 2.25302 -97.7191
rradius 48.2685
rwrist 20.6675
rhand -4.50476 -44.6928
rfingers 7.12502
rthumb 21.2692 -73.5458
lclavicle 5.45664e-014 -1.35174e-014
lhumerus -44.7637 -21.7276 105.882
lradius 69.3364
lwrist -15.1844
lhand 8.33941 0.952602
lfingers 7.12502
lthumb 33.5497 27.8352
rfemur 0 0 0
rtibia 0
rfoot 0 0
rtoes 0
lfemur -15.9581 -13.2787 -9.17541
ltibia 25.8426
lfoot -13.484 3.57016
ltoes -56.1975
778
root -1.35935 18.7581 5.80766 3.08148 21.0711 -1.98798
lowerback 34.0012 3.10595 -2.04777
upperback 2.99895 3.19811 -0.578032
thorax -14.1517 1.54386 -0.88155
lowerneck -13.4515 -14.6134 -17.9825
upperneck 20.9217 -19.5352 13.3621
head 12.3048 -8.96671 4.52162
rclavicle -9.93923e-015 3.18055e-015
rhumerus -47.6411 1.82177 -97.3877
rradius 48.2835
rwrist 20.779
rhand -4.61928 -44.61
rfingers 7.12502
rthumb 21.1592 -73.4754
lclavicle -9.93923e-015 3.18055e-015
lhumerus -44.7965 -21.6327 106.141
lradius 69.2402
lwrist -15.2878
lhand 8.06678 1.01542
lfingers 7.12502
lthumb 33.2905 27.9539
rfemur 0 0 0
rtibia 0
rfoot 0 0
rtoes 0
lfemur -16.1307 -13.5784 -9.07685
ltibia 26.0553
lfoot -13.6531 3.69211
ltoes -56.2447
